<?xml version="1.0" encoding="UTF-8"?>
<svg xmlns="http://www.w3.org/2000/svg" width="1200" height="575">
  <rect width="100%" height="100%" fill="#f8f9fa"/>
  <text x="10" y="30" font-family="Arial" font-size="14" fill="#2d3436">
    Snapshot Flame Graph for art_8d9461dc58ad4f81a5ec2ce13d831eb6 (19 frames)
  </text>
  <rect x="10" y="50" width="200" height="20" fill="#ff6b6b" rx="2"/>
  <text x="15" y="64" font-family="Arial" font-size="10" fill="white">[InlinedCallFrame: 00007ffd...</text>
  <rect x="220" y="50" width="200" height="20" fill="#ff6b6b" rx="2"/>
  <text x="225" y="64" font-family="Arial" font-size="10" fill="white">dump: /home/gospodin/.clrsc...</text>
  <rect x="430" y="50" width="200" height="20" fill="#ff6b6b" rx="2"/>
  <text x="435" y="64" font-family="Arial" font-size="10" fill="white">[DebuggerU2MCatchHandlerFra...</text>
  <rect x="640" y="50" width="200" height="20" fill="#ff6b6b" rx="2"/>
  <text x="645" y="64" font-family="Arial" font-size="10" fill="white">[DebuggerU2MCatchHandlerFra...</text>
  <rect x="850" y="50" width="200" height="20" fill="#ff6b6b" rx="2"/>
  <text x="855" y="64" font-family="Arial" font-size="10" fill="white">TestApp.Program.RecursiveWo...</text>
  <rect x="10" y="75" width="200" height="20" fill="#ff6b6b" rx="2"/>
  <text x="15" y="89" font-family="Arial" font-size="10" fill="white">TestApp.Program.RecursiveWo...</text>
  <rect x="220" y="75" width="200" height="20" fill="#ff6b6b" rx="2"/>
  <text x="225" y="89" font-family="Arial" font-size="10" fill="white">TestApp.Program.RecursiveWo...</text>
  <rect x="10" y="110" width="200" height="20" fill="#a29bfe" rx="2"/>
  <text x="15" y="124" font-family="Arial" font-size="10" fill="white">TestApp.Program+&lt;&gt;c__Displa...</text>
  <rect x="220" y="110" width="200" height="20" fill="#a29bfe" rx="2"/>
  <text x="225" y="124" font-family="Arial" font-size="10" fill="white">TestApp.Program.Main(System...</text>
  <rect x="430" y="110" width="200" height="20" fill="#a29bfe" rx="2"/>
  <text x="435" y="124" font-family="Arial" font-size="10" fill="white">[DebuggerU2MCatchHandlerFra...</text>
  <rect x="640" y="110" width="200" height="20" fill="#a29bfe" rx="2"/>
  <text x="645" y="124" font-family="Arial" font-size="10" fill="white">[DebuggerU2MCatchHandlerFra...</text>
  <rect x="850" y="110" width="200" height="20" fill="#a29bfe" rx="2"/>
  <text x="855" y="124" font-family="Arial" font-size="10" fill="white">[DebuggerU2MCatchHandlerFra...</text>
  <rect x="10" y="135" width="200" height="20" fill="#a29bfe" rx="2"/>
  <text x="15" y="149" font-family="Arial" font-size="10" fill="white">[DebuggerU2MCatchHandlerFra...</text>
  <rect x="220" y="135" width="200" height="20" fill="#a29bfe" rx="2"/>
  <text x="225" y="149" font-family="Arial" font-size="10" fill="white">[DebuggerU2MCatchHandlerFra...</text>
</svg>
